/* XPM */
static char *square_2[] = {
/* columns rows colors chars-per-pixel */
"64 64 8 1 ",
"  c black",
". c #010101",
"X c #020202",
"o c gray1",
"O c #040404",
"+ c #FDFDFD",
"@ c #FEFEFE",
"# c white",
/* pixels */
"################################################################",
"################################################################",
"################################################################",
"################################################################",
"####                                                        ####",
"####                                                        ####",
"####                                                        ####",
"####    ................................................    ####",
"####   X+@@@@@@@@@@@@@@@@@@@@@@@@@@@@@@@@@@@@@@@@@@@@@@@o   ####",
"####   X@###############################################o   ####",
"####   X@###############################################o   ####",
"####   X@###############################################o   ####",
"####   X@###############################################o   ####",
"####   X@###############################################o   ####",
"####   X@###############################################o   ####",
"####   X@###############################################o   ####",
"####   X@###############################################o   ####",
"####   X@###############################################o   ####",
"####   X@###############################################o   ####",
"####   X@###############################################o   ####",
"####   X@###############################################o   ####",
"####   X@###############################################o   ####",
"####   X@###############################################o   ####",
"####   X@###############################################o   ####",
"####   X@###############################################o   ####",
"####   X@###############################################o   ####",
"####   X@###############################################o   ####",
"####   X@###############################################o   ####",
"####   X@###############################################o   ####",
"####   X@###############################################o   ####",
"####   X@###############################################o   ####",
"####   X@###############################################o   ####",
"####   X@###############################################o   ####",
"####   X@###############################################o   ####",
"####   X@###############################################o   ####",
"####   X@###############################################o   ####",
"####   X@###############################################o   ####",
"####   X@###############################################o   ####",
"####   X@###############################################o   ####",
"####   X@###############################################o   ####",
"####   X@###############################################o   ####",
"####   X@###############################################o   ####",
"####   X@###############################################o   ####",
"####   X@###############################################o   ####",
"####   X@###############################################o   ####",
"####   X@###############################################o   ####",
"####   X@###############################################o   ####",
"####   X@###############################################o   ####",
"####   X@###############################################o   ####",
"####   X@###############################################o   ####",
"####   X@###############################################o   ####",
"####   X@###############################################o   ####",
"####   X@###############################################o   ####",
"####   X@###############################################o   ####",
"####   X@###############################################o   ####",
"####   X@###############################################o   ####",
"####   .OOOOOOOOOOOOOOOOOOOOOOOOOOOOOOOOOOOOOOOOOOOOOOOOX   ####",
"####                                                        ####",
"####                                                        ####",
"####                                                        ####",
"################################################################",
"################################################################",
"################################################################",
"################################################################"
};
