/* XPM */
static char *a09d4da7782942fee24a4b7e669664356DWtFBBWcNH33acO[] = {
/* columns rows colors chars-per-pixel */
"64 64 48 1 ",
"  c #202020",
". c #2C2C2C",
"X c gray19",
"o c #343434",
"O c gray22",
"+ c #400000",
"@ c #4C0000",
"# c #580000",
"$ c #640000",
"% c #700000",
"& c #7C0000",
"* c #571138",
"= c #611138",
"- c #6A1138",
"; c #731138",
": c #7C1138",
"> c #3F3259",
", c #483B62",
"< c gray25",
"1 c #484848",
"2 c #4C4C4C",
"3 c gray33",
"4 c gray36",
"5 c #54476E",
"6 c #5D5077",
"7 c #646464",
"8 c #880000",
"9 c #980000",
"0 c #A40000",
"q c #B00000",
"w c #BC0000",
"e c #851138",
"r c #911138",
"t c #9A1138",
"y c #AD1138",
"u c #BF1138",
"i c #C80000",
"p c #D40000",
"a c #E00000",
"s c #EC0000",
"d c #D11138",
"f c #6A5D84",
"g c #7C45E8",
"h c #7D45E8",
"j c #7F45E8",
"k c #7D46EA",
"l c #7D46EB",
"z c #7E46EA",
/* pixels */
"OOOOOOOOOOOOOOOOOOOOOOOOOOOOOOOOOOOOOOOOOOOOOOOOOOOOOOOOOOOOOOOO",
"3O311111311111131O111111133333311111111133333331111OOO113311111O",
"Ossppppppppp0113sspppppppppppppppppp01O3ssssaaaaaapppppiiiiwww01",
"1siqqp80p8i0$.13sw8w8w8w&w9w9w&w&wi0%.1Op0iqiqqi%i&iqi8q0&i9i0&.",
"1p0&0809%08%$.13pw8808%00%900%90%09%#.13p00&$08%80&80080&80#0%$.",
"1p&00%900%0#+.13p8w080%080%0%8&0%9&%#.11p%0$80$0%0&080$09&0&0%@.",
"1i0&89&0%80%+.13ww808890%8%08%9&8%0%+.O1w%0&08$0%%00%0800&0#08@.",
"1w&00%09%9%#+.11wi80%0%0%0%98%&0%9&%#.O1w90$80&8%8&080$0&80&0%+.",
"1w0%8#%&#%8%+.O399%%@8%%8%@%8%8%@8%%+.O1w%%#%%@8@%#8@%@8$@%8%8+.",
"1&$$$++++++++.O1&$$#########+++++++++.O18$$$$$$$$$$#########+++.",
"11........   .O31.....     ..    .....13O...........     .......",
"3OOOO1111OOOOO1O1111111OOO3111OO1111113O136hhhf743311<O<3O31113O",
"spppwwwwwwwwwww0131ssppppppiiiiiiiwwwwyhhllllhhwwwww01<3sspppppp",
"q88q9&q&98q$q80+O13s%qi&w$8w88i908&8tklllllllljwi9i0+O1Osi&q8q8q",
"8080&88$08$800%+.11pq%0&0080$0%$80:kklllllllllh80%0%+O13iq&08&09",
"%0089$0&889$08%+.O1ugkkr88$88%08-kkkkklllllllht%00%%+.<1i&000&0&",
"08808&&8&09$0$%+.O1hlllh0$80-kkklllllllllljht%8%0%0%+.O1iq&0&09&",
"%0$0%8&9$0-hhhhlhlhllllljlkkkklllllllllh=80$80%80%0%+ O1q&00#0&8",
"%q$%@&%9%9hlhlllllllllllllllkllllllllj;88#9%%8@%9%8%+ <3q0&%#%9%",
"+@@@@@@@@@klllllllllllllllllkklllllh=##############++ 1O0$+$++$+",
"... ...   lhllllllllllllllllllllhh>.     ...    .....O131.......",
"331OO13O3O5lhlllllllllllllllll513O31<OOO<<113<OO<111313O3<O<3111",
"3sspppppppwwwwwwwwwlllllwww0133ssppppppppppwwwwwwwwwwwwwwwwwww01",
"3s8qw&w&w&q8q8qi8q8llllhqi%+O13sw%p0q80q8q9q&$08%80&80980&80#0+.",
"Osq8090&%80089808$0lllll0%q+.14pw90$0$8%98$0$80$0%0&080$09&0&%+.",
"1w$00%8#0$0%0890$80lllll&0%+.37pw&0&0$0%90&0&08$0%%09%9800&0#%+.",
"1wq80@0#%808%&0&8$&zlllj0%#+.34p%0%98$89%0$8$80&8%8&080$0&80&%+.",
"3w%$0@8&0$0#0$08$80lllll&&q+.13pi%0%0808%0$0#%%@0@0#0@008$@%8%+.",
"1i0$%%%#%@%%8$8%%8%lllll9%%+.O3i0%9%8#%%%%$8%8@0#%0@%8@0#0@0%%+.",
"109$$$$$$$$$-hhlllllllllllllhl60$$$$$$$$$$$$$$############+#&#+.",
"11O.........hhllllllllllllllljllhh>.....     .OOO.   ...........",
"3333311O1OOOhhlllllllllllllllllllhlO3131<O<O<13311<O<1113O31113O",
"wwwwwwwwww01hlllllllllllllllllllllhwwww0133ispppppppppwwwwwwwwww",
"0q0q9iqqi0+O5hjlllllllllhlhlllllllh%0&0+O13p0&0%00$0&8&0%080&0%0",
"0&8090&08%+.13p$0&8lllll088%ehhzhh;80$0+O33p0#0%08$080&889%9&98%",
"8&09&0&90%+.1Op$00&lllzz080#0@8808%90&0+O37p0&0%080800&0%9809&0%",
"08&0909&8%+O13p9$0&lllll88%80$08$89%80&+O37p&00%0$00&&0&08998&%8",
"08&0&0&90%+O11p$0&#lllllt80%8@$9$09%0&0+O13i0&00%088&0&0%980&80%",
"%%89%%9%%%+O119$00#hllllh$0#8$08$9%90$&+.13i0#0%008080&0%9%9&00%",
"++@@@@@@@++.110$$$$-lllzz#############++.110$$$$$$$$$$$$$$$####+",
"............131.    lllll.     .........O111....OO1O..   .......",
"313O1OO11O,hhlhllhlllllllljlhlzz513O1O1O11313O313473211O31313O3O",
"Ospppppppwjlllllllllllllllllllllllhjdppppppppwwwwwwwwwwwwwwwww01",
"3p0880$00&hlllllllllllllllllllllllllllhj-0#0%0#08#98%08&0&9%80+.",
"1p0$08$089hjllllllllllllllllllllllllllllllhh=9&0#0$0%8%08&90$8+.",
"1p8$0$8%$0-hjlhlhlhlllllllhlhlllllllllllllllllhljlhh;0%0&0%8$0+.",
"Op0808$08&90&0#80$0#hllhj&000%:hhlllllllllllllllllllh8989&%080+.",
"3p0$80$0$0$0$0%0$$0#ehhhe$9$8%0+ O6hhlllllllllllllllh0%&0&98$%+.",
"Oi0$0$8%89&088809$8&#$0@0%9&0%0+ O3i%0-jhlllllllllllh0%0&9%0$0+.",
"30$$$$$$$$$@@@@@@@@@@@@@@@@@@@@+.130$$$$$$-hhlhlhlhh*@@@@@@@@++.",
"O1..........OOO.    ...    ..  ..1O1......   .oOo. ....   ......",
"3O3O3131111377313O3131<OOO<1311O113O311111111233321111OX  XO1131",
"pppppwwwwwwwwwwww0131ssppppppppwwwwwwwwwwwwwww01O3spppppwwwwwwww",
"&0#00$9$0&i&0$0&0+.11p0000$0@0&0$0$090$0$0#0%$+O13p0$80#0%0%0$0%",
"0&&0&0$9&$0#&$8$8+.11p&0%0$%@&9&08$89$&8%8#0$0+o13p$0#0%0%80%08@",
"0&#&0$9$&0&#08$9&+.1<p&&%0$&&0#0@00$0$0$8#88$%+.13p$0%%008%8%$%8",
"&9#9$$0$0&0#&%$0$+.1<p0@%0$0@0&9$0$8&$0$08#%9$+.13p0$#08%%0%0$%0",
"$0&0$0$80$0&#80&8+.1<p@00$0&%8#&@0$0$&&$8%#8%$+.11p$080%08%%#0%0",
"$0&&$99$9$&#0$0$9+.11p@0%0$&&8@9$8@0&$08$0#0#8+.O1p$0#%#0%0%#$0@",
"&9#0$$8$&&0#0$%8&+.13i0@%0$0@8$0$0%$0$&0$8%8$8+.O1i$$#0#0%0%0$0%",
"@@@@@@@@@@@@@@@@++.110+++++@@@@@@@@@@@@@@@@@@++ 130++@@@@@@@@@@@",
"...................131Ooo..............     .   O11......     ..",
"O3O3OOO1111133O1111333331113111311O111<OO<OO<1<O<311O31111<O<111",
"3333333333333333333333333333333333333333333333333333333333333333"
};
