/* XPM */
static char *_568865e7d184e97c33b7c9c65ba3c4dspUqbeQNA7M636lW[] = {
/* columns rows colors chars-per-pixel */
"64 64 64 1 ",
"  c #202020",
". c #2B2D2B",
"X c #2C2C2C",
"o c gray19",
"O c #343434",
"+ c #373837",
"@ c #363B36",
"# c gray22",
"$ c #400000",
"% c #4B0200",
"& c #4C0000",
"* c #570200",
"= c #580000",
"- c #630200",
"; c #640000",
": c #6F0200",
"> c #700000",
", c #7C0000",
"< c #413A1F",
"1 c #4A3A1F",
"2 c #533A1F",
"3 c #5C3A1F",
"4 c #653A1F",
"5 c #6E3A1F",
"6 c #773A1F",
"7 c #325B40",
"8 c #396647",
"9 c #3B6449",
"0 c gray25",
"q c #474947",
"w c #474A47",
"e c #484848",
"r c #4C4C4C",
"t c #525652",
"y c gray33",
"u c gray36",
"i c #416A4F",
"p c #477055",
"a c #646464",
"s c #840300",
"d c #860200",
"f c #880000",
"g c #960200",
"h c #980000",
"j c #A20300",
"k c #A40000",
"l c #AE0200",
"z c #B00000",
"x c #B70400",
"c c #BA0200",
"v c #BC0000",
"b c #833A1F",
"n c #8C3A1F",
"m c #953A1F",
"M c #9E3A1F",
"N c #B03A1F",
"B c #C80000",
"V c #D40000",
"C c #E00000",
"Z c #EC0000",
"A c #C23A1F",
"S c #44EB7B",
"D c #45EB7C",
"F c #46EB7D",
/* pixels */
"################################################################",
"y#yeeeeeyeeeeeeye#eeeeeeeyyyyyyeeeeeeeeeyyyyyyyeeee###eeyyeeeee#",
"#ZZVVVVVVVVVkeeyZZVVVVVVVVVVVVVVVVVVke#yZZZZCCCCCCVVVVVBBBBvvvke",
"eZBzzVfkVfBk;XeyZvfvfvfv,vhvhv,v,vBk>Xe#VkBzBzzB>B,BzBfzk,BhBk,X",
"eVk,kfkh>kf>;XeyVvffkf>kk>hkk>hk>kh>=XeyVkk,;kf>fk,fkkfk,fk=k>;X",
"eV,kk>hkk>k=$XeyVfvkfk>kfk>k>f,k>h,>=XeeV>k;fk;k>k,kfk;kh,k,k>&X",
"eBk,fh,k>fk>$Xeyvvfkffhk>f>kf>h,f>k>$X#ev>k,kf;k>>kk>kfkk,k=kf&X",
"ev,kk>kh>h>=$XeevBfk>k>k>k>hf>,k>h,>=X#evhk;fk,f>f,kfk;k,fk,k>$X",
"evk>f=>,=>f>$X#yhh>>&f>>f>&>f>f>&f>>$X#ev>>=>>&f&>=f&>&f;&>f>f$X",
"e,;;;$$$$$$$$X#e,;;=========$$$$$$$$$X#ef;;;;;;;;;;=========$$$X",
"eeXXXXXXXX   X#yeXXXXX     XX    XXXXXey#XXXXXXXXXXX     XXXXXXX",
"y####eeee##9FFF9eeeeeee###yeee##eeeeeey#eyyyyuaauyyee0#0y#yeeey#",
"ZVVVvvvvvvvFFFFFeyeZZVVVVVVBBBBBBBvvvvvvvvvvvvvvvvvvke0yZZVVVVVV",
"zffzh,z,hflSFSFF9eyZ>zB,v;fvffBhkf,fkfkfk,B;BfhvBhBk<FFFAB,zfzfz",
"fkfk,ff;kf;FSSFFFeeVz>k,kkfk;k>;fk,k,k;kkf;kfk>fk>k>FFFFFl,kf,kh",
">kkfh;k,ffh3SFFFFFpV>kfhff;ff>kf;kf,;,ffk=f,k>k>kk>4FFFSF,kkk,k,",
"kffkf,,f,kh-FSFFFFFV:kk,k;fk;>k;fk,f,k;kf=k;k>f>k4FFFFFFSl,k,kh,",
">k;k>f,h;k;dnFFFFFFNz=k,kf;f=f>;kf,=,k;f=fk;fk>6FFFFFFFSm,kk=k,f",
">z;>&,>h>h>*g:FFFFFFk>f=>h>f;>f=>h>h;f>ff=h>>f&FFFFFFSSSzk,>=>h>",
"$&&&&&&&&&&&%$<SFFFF3;;;;;;;;;;;;============2FFFFFFSFS8k;$;$$;$",
"XXX XXX   ...  FFFFFFOXXXXXXOO##OXXX     XX7FFFFFFFFF9wteXXXXXXX",
"yye##ey#y#ww+##9FFFFFp0#0#0#0eeey#ye0###0iFFFFFFFFFpyey@y0#0yeee",
"yZZVVVVVVVxvvvvvFFFFFFvvvvvkeyyZZVVVVVVVVFFFFFFFFFvvvvvxxvvvvvke",
"yZfzv,v,v,ldzfzB6FFFFFm;zB>$#eyZv>Vkzfkz6FFFFFFFF6k,fkgsj,fk=k$X",
"#Zzfkhk,>fjkfhfkfFFFFFFfk>z$XeuVvhk;k;f>FFFFFFF3k>k,jdj-jh,k,>$X",
"ev;kk>f=k;j>kfhk;6FFFFF3,k>$7FFFM,k,k;k4FFFFFnf;k>>kh:gdjk,k=>$X",
"evzfk&k=>djf>,k,f;FFFFFFk>=$FFFFFF4hf;fFFFFFFfk,f>f,kfk-j,fk,>$X",
"yv>;k&f,k;j=k;kf;fnFFFFF5,mFFFFFFFF>k6FFFFFF2>>&k&k=k&jjd;&>f>$X",
"eBk;>>>=>%:>f;f>>f>FFFFFF>FFFFFFFFF>fFFFFFFF>f&k=>k&>f&j=k&k>>$X",
"ekh;;;;;;--;;;;;;&&1FFFFF1FFFFFFFFF;3FFFFFF3;;============$=,=$X",
"ee#XXXXXX..XXXXXXXXXFFFFFFFFFFFFFFFFFFFFFF   X###X   XXXXXXXXXXX",
"yyyyyee#e###eyaayyyeFFFFFFFFFFFFFFFFFFFFF90#0eyyee0#0eeey#yeeey#",
"vvvvvvvvvvke#yVVVVVVFFFFFFFFFFMFFFFFFFFFFyyBZVVVVVVVVVvvvvvvvvvv",
"kzkzhBzzBk$#e#Vk;k>knFFFFFFFF3kkFFFFFFFF9eyVk,k>kk;k,f,k>kfk,k>k",
"k,fkhk,kf>$XeyV;k,fk,FFFFFFFFfkfFFFFFFFF#yyVk=k>kf;kfk,ffh>h,hf>",
"f,kh,k,hk>$Xe#V;kk,hkFFFFFFFn&ffFFFFFFFF#yaVk,k>kfkfkk,k>hfkh,k>",
"kf,khkh,f>$#eyVh;k,k,FFFFFFFk;kf3FFFFFFF#yaV,kk>k;kk,,k,kfhhf,>f",
"kf,k,k,hk>$#eeV;k,=hkFFFFFF4f&;h;FFFFFFF#eyBk,kk>kff,k,k>hfk,fk>",
">>fh>>h>>>$#eeh;kk=k,FFFFFk=f;kf;bFFFFFFXeyBk=k>kkfkfk,k>h>h,kk>",
"$$&&&&&&&$$Xeek;;;;;;3FFF2=========2FFF<Xeek;;;;;;;;;;;;;;;====$",
"XXXXXXXXXXXXeyeX    XX###X     XXXXXXXXX#eeeXXXX##e#XX   XXXXXXX",
"yey#e##ee####ee###eeeeeyyee###yeeey#e#e#eeyey#yeyuayree#yeyey#y#",
"#ZVVVVVVVvvvvvvvvvvvvvvvvvvvvvvk#y#ZZVVVVVVVVvvvvvvvvvvvvvvvvvke",
"yVkffk;kk,hk,k>fk;k,kfk;k;kk,>k$#eyZkk;k;k=k>k=kf=hf>kf,k,h>fk$X",
"eVk;kf;kfh,k;f=kh;k=fhf;k,k,k>h$XeeVfk;f;,=f=h,k=k;k>f>kf,hk;f$X",
"eVf;k;f>;k;kf,fk;hff=,k&h=f;ff>$X#eVfk;;fk,=k,=hk=k>>k>k,k>f;k$X",
"#Vkfkf;kf,hk,k=fk;k=fk=hk,kkk>,$X#eVk;kf;k=k>h,,=f;k,fhfh,>kfk$X",
"yVk;fk;k;k;k;k>k;;k=f,k,f;h;f>k$ #yVk;;k;,=k=k=h=k;f>k>,k,hf;>$X",
"#Bk;k;f>fh,kfffkh;f,=;k&k>h,k>k$ #yB>k;f;k=,k,=h>f;k>k>k,h>k;k$X",
"yk;;;;;;;;;&&&&&&&&&&&&&&&&&&&&$Xeyk;;;;;;;;;=====&&&&&&&&&&&$$X",
"#eXXXXXXXXXX###X    XXX    XX  XXe#eXXXXXX   XO#OX XXXX   XXXXXX",
"y#y#yeyeeeeyaayey#yeye0###0eyee#eey#yeeeeeeeeryyyreeee#o  o#eeye",
"VVVVVvvvvvvvvvvvvkeyeZZVVVVVVVVvvvvvvvvvvvvvvvke#yZVVVVVvvvvvvvv",
",k=kk;h;k,B,k;k,k$XeeVkkkk;k&k,k;k;khk;k;k=k>;$#eyVk;fk=k>k>k;k>",
"k,,k,k;h,;k=,;f;f$XeeV,k>k;>&,h,kf;fh;,f>f=k;k$OeyV;k=k>k>fk>kf&",
"k,=,k;h;,k,=kf;h,$Xe0V,,>k;,,k=k&kk;k;k;f=ff;>$XeyV;k>>kkf>f>;>f",
",h=h;;k;k,k=,>;k;$Xe0Vk&>k;k&k,h;k;f,;k;kf=>h;$XeyVk;=kf>>k>k;>k",
";k,k;k;fk;k,=fk,f$Xe0V&kk;k,>f=,&k;k;,,;f>=f>;$XeeV;kfk>kf>>=k>k",
";k,,;hh;h;,=k;k;h$XeeV&k>k;,,f&h;f&k,;kf;k=k=f$X#eV;k=>=k>k>=;k&",
",h=k;;f;,,k=k;>f,$XeyBk&>k;k&f;k;k>;k;,k;f>f;f$X#eB;;=k=k>k>k;k>",
"&&&&&&&&&&&&&&&&$$Xeek$$$$$&&&&&&&&&&&&&&&&&&$$ eyk$$&&&&&&&&&&&",
"XXXXXXXXXXXXXXXXXXXeye#OOXXXXXXXXXXXXXX     X   #eeXXXXXX     XX",
"#y#y###eeeeeyy#eeeeyyyyyeeeyeeeyee#eee0##0##0e0#0yee#yeeee0#0eee",
"yyyyyyyyyyyyyyyyyyyyyyyyyyyyyyyyyyyyyyyyyyyyyyyyyyyyyyyyyyyyyyyy"
};
