/* XPM */
static char *_ac860db28f3404aa26aaedcc92789c2c4I7vFVwdimp5GLE[] = {
/* columns rows colors chars-per-pixel */
"64 64 172 2 ",
"   c #202020",
".  c #2C2C2C",
"X  c #333333",
"o  c gray22",
"O  c #400000",
"+  c #4C0000",
"@  c #580000",
"#  c #520808",
"$  c #4F1414",
"%  c #551C1C",
"&  c #640000",
"*  c #6D0F0F",
"=  c #700000",
"-  c #7C0000",
";  c #760A0A",
":  c #780F0F",
">  c #6D1010",
",  c #711616",
"<  c #7B1313",
"1  c #7E1919",
"2  c #5C2626",
"3  c #722828",
"4  c #7E2A2A",
"5  c #683636",
"6  c #404040",
"7  c #484848",
"8  c #545454",
"9  c #5C5C5C",
"0  c #646464",
"q  c #6B6B6B",
"w  c gray45",
"e  c gray49",
"r  c #880000",
"t  c #830E0E",
"y  c #8E0C0C",
"u  c #980000",
"i  c #9B0808",
"p  c #861313",
"a  c #811E1E",
"s  c #911414",
"d  c #951C1C",
"f  c #A40000",
"g  c #A70808",
"h  c #A90E0E",
"j  c #B00000",
"k  c #BC0000",
"l  c #AB1515",
"z  c #A31B1B",
"x  c #AE1B1B",
"c  c #B81919",
"v  c #912828",
"b  c #9D2E2E",
"n  c #8D3333",
"m  c #883C3C",
"M  c #953232",
"N  c #923D3D",
"B  c #9B3D3D",
"V  c #B02222",
"C  c #BC2525",
"Z  c #BC2828",
"A  c #A13636",
"S  c #AE3636",
"D  c #A53E3E",
"F  c #B73535",
"G  c #B93C3C",
"H  c #C80000",
"J  c #D40000",
"K  c #CD1616",
"L  c #C61818",
"P  c #D91B1B",
"I  c #E00000",
"U  c #EC0000",
"Y  c #C52323",
"T  c #C82C2C",
"R  c #DB2A2A",
"E  c #CA3636",
"W  c #D53B3B",
"Q  c #EF2626",
"!  c #8E4545",
"~  c #9B4D4D",
"^  c #835959",
"/  c #985555",
"(  c #A74242",
")  c #A94747",
"_  c #BD4747",
"`  c #AD5757",
"'  c #B95252",
"]  c #926969",
"[  c #9C6D6D",
"{  c #9D7474",
"}  c #A46A6A",
"|  c #AD6C6C",
" . c #B66262",
".. c #B86666",
"X. c #BA6B6B",
"o. c #AA7373",
"O. c #B77272",
"+. c #BA7777",
"@. c #CF4747",
"#. c #C25353",
"$. c #D15050",
"%. c #E15050",
"&. c #C76262",
"*. c #C36B6B",
"=. c #D56B6B",
"-. c #C67373",
";. c #CD7474",
":. c #DA7373",
">. c #D27C7C",
",. c #E56262",
"<. c #E87777",
"1. c #E27878",
"2. c #858585",
"3. c #8E8E8E",
"4. c #939393",
"5. c #9A9A9A",
"6. c #BF9E9E",
"7. c #A2A2A2",
"8. c #ACACAC",
"9. c #BEA3A3",
"0. c #B3B3B3",
"q. c #BDBDBD",
"w. c #CC9292",
"e. c #C39C9C",
"r. c #CE9F9F",
"t. c #D89E9E",
"y. c #EC9090",
"u. c #CDAAAA",
"i. c #D4A7A7",
"p. c #D3AAAA",
"a. c #CBB1B1",
"s. c #CEBEBE",
"d. c #D9B5B5",
"f. c #D3BEBE",
"g. c #DEBDBD",
"h. c #E7A4A4",
"j. c #E2AAAA",
"k. c #F1ACAC",
"l. c #E4B2B2",
"z. c #ECB1B1",
"x. c #E4BCBC",
"c. c #E8BFBF",
"v. c #F2B1B1",
"b. c #F4BEBE",
"n. c #C3C3C3",
"m. c #CDCDCD",
"M. c #DDC4C4",
"N. c #D2D2D2",
"B. c #DBDBDB",
"V. c #E2C6C6",
"C. c #EAC5C5",
"Z. c #E3CBCB",
"A. c #EACBCB",
"S. c #F4C9C9",
"D. c #E5D6D6",
"F. c #ECD4D4",
"G. c #E6DEDE",
"H. c #EADCDC",
"J. c #F1D5D5",
"K. c #FCD6D6",
"L. c #F2DBDB",
"P. c #F9DDDD",
"I. c #E3E3E3",
"U. c #EEE3E3",
"Y. c #EBEBEB",
"T. c #F4E2E2",
"R. c #F9E2E2",
"E. c #F5EDED",
"W. c #FBEEEE",
"Q. c #F4F2F2",
"!. c #FAF4F4",
"~. c #FEFDFD",
/* pixels */
"o o o o o o o o o o o o o o o o o o o o o o o o o o o o o o o o o o o o o o o o o o o o o o o o o o o o o o o o o o o o o o o o ",
"8 o 8 7 7 7 7 7 8 7 7 7 7 7 7 8 7 o 7 7 7 7 7 7 7 8 8 8 8 8 8 7 7 7 7 7 7 7 7 7 G.8 8 8 8 8 8 7 7 7 7 o o o 7 7 8 8 7 7 7 7 7 o ",
"o U U J J J J J J J J J f 7 7 8 U U J J J J J J J J J J J J J J J J J J f 7 o B.K.K.U U J I I I I I J J J J J H H H H k k k f 7 ",
"7 U H j j J r f J r H f & . 7 8 U k r k r k r k - k u k u k - k - k H f = . 7 o S.L.H j H j j H = H - H j H r j f - H u H f - . ",
"7 J f - f r f u = f r = & . 7 8 J k r r f r = f f = u f f = u f = f u = @ . 7 ~.W.~.J.- & f r = r f - r f f r f - r f @ f = & . ",
"7 J - f f = u f f = f @ O . 7 8 J r k f r f = f r f = f = r - f = u ~.= @ m.N.8.k.Q.J.& r f & f = f - f r f & f u - f - f = + . ",
"7 H f - r u - f = r f = O . 7 8 k k r f r r u f = r = f r = u - r | w.O.O . ~.8.k = A.F.f r & f = = f f = f r f f - f @ f r + . ",
"7 k - f f = f u = u = @ O . 7 7 k H r f = f = f = f = u r = - f = u ` Q.@ w Y.B.k u R.D.F.f - r = r - f r f & f - r f - f = O . ",
"7 k f = r @ = - @ = r = O . o 8 u u = = + r = = r = + = r = r = + b n | ~.. ~.0.S.= ~ ~.D.= + r + = @ r + = + r & + = r = r O . ",
"7 - & & & O O O O O O O O . o 7 - & & @ @ @ @ @ @ @ @ @ O O O O $ ~.5 ] ~.~.o Q.~.m ~.~.& & & & & & & @ @ @ @ @ @ @ @ @ O O O . ",
"7 7 . . . . . . . .       . o 8 7 . . . . .         ~.. . ~.7   o ~.~.9 2.~.7 N.m.Y.~.o . . . . . . . .           . . . . . . . ",
"8 o o o o 7 7 7 7 o o o o o 7 o 7 7 7 7 7 7 7 o ~.~.~.I.8 ~.q 0 7 9 ~.w 4.4.~.o 7 8 0 8 8 9 0 0 9 8 8 7 7 6 o 6 8 o 8 7 7 7 8 o ",
"U J J J k k k k k k k k k k k f 7 8 7 U U J ~.~.@.<.!.K H K ~.W H L @.~.E =.~.k k k k k k k k k k k k k f 7 6 8 U U J J J J J J ",
"j r r j u - j - u r j & j r f O o 7 8 U = w.~.B W , ~.@.r s ~.~._ r V.~.F A f r f - H & H r u k H u H f O o 7 o U H - j r j r j ",
"r f r f - r r & f r & r f f = O . 7 7 J k = l - f L.~.F & f 1 ~.p.g ~.R.- f & f f r & f r f = r f = f = O o 7 8 H j - f r - f u ",
"= f f r u & f - r r u & f r = O . o 7 J = f r u r w.~.r r = f r ~.~.~.- & - r r f @ r - f = f = f f = = O . 6 7 H - f f f - f - ",
"f r r f r - - r - f u & f & = O 3.~.7 J = f f - f ~.Z.g & N _ 4 p.f t r - f & f r @ f & f = r = f = f = O . o 7 H j - f - f u - ",
"= f & f = r - u & f & r f f = O 3.~.~.H j @ f - f ( E.y ! A.~.& f r - @ - f & r @ r f & r f = r f = f = O   o 7 j - f f @ f - r ",
"= j & = + - = u = u = @ u = = O . I.~.j f = r @ < !.} ..~.~.r @ = u = u & r = r r @ u = = r + = u = r = O   6 8 j f - = @ = u = ",
"O + + + + + + + + + + + + O O ~.~.~.~.~.& & & & & Z.~.~.@ & & & & @ @ @ @ @ @ @ @ @ @ @ @ @ @ @ @ @ @ O O   7 o f & O & O O & O ",
". . .   . . .       . . .   7.~.n.7 m.~.o o . . . !.~.. X X o o X . . .           . . .         . . . . . o 7 8 7 . . . . . . . ",
"8 8 7 o o 7 8 o 8 o 7 7 ~.9 w ~.7 7 8 q.!.7 6 o 6 o 6 o 6 7 7 7 8 o 8 7 6 o o o 6 6 7 7 8 6 o o 6 7 7 7 8 7 8 o 8 6 o 6 8 7 7 7 ",
"8 U U J J J H J J J k L ~.E E z.L.k k h.!.~.k k k k k f 7 8 8 U U J J J J J J J J J J k k k k k k k k k k k k k k k k k k k f 7 ",
"8 U r j k M k - k M j r c ~.G K.!.!.X.Z !.!.j & j H = O o 7 8 U k = J f j r f j r j u j - & f r = r f - r f u r f - r f @ f O . ",
"o Q C ~.T.~.F p : ~.G f d ~.~.F X.~.~.~.x r & r f = j O . 7 9 J k u f & f & r = u r & f & r f & f = f - f r f & f u - f - = O . ",
"7 k ~.#.R.; !.U.l ~.G N f ( ~.F } r l.: r f r & - f = O . 8 0 J k - f - f & f = u f - f - f r & f = = f u = u r f f - f @ = O . ",
"N.~.=.y f # F.U.!.s ~.) = V.C.~.A & - f & f r & f = @ O . 8 9 J = f = u r & r u = f & r & r f - r = r - f r f & f - r f - = O . ",
"I.!.= & f + r d.L., ~.~.i.~.R.r & r f r & f & r - - j O . 7 8 J H = f = f r f r = f & f @ = = + f + f @ f + f f r & + = r = O . ",
"I.R.f & = = = 6.~.9.= ~.~.~.d = = r = = & = u = u = = O . o 8 H f = u = r @ = = = = & r = r + f @ = f + = r + f @ f + f = n % . ",
"e ~.u & & & & , !., & & & > & & & + + + + + + + + + O O . o 8 f & & & & & & & & & & & & & & @ @ @ @ @ @ @ @ @ @ @ @ O U.E.a.O . ",
"8.n.~.. . . . 0 Q.7 . . . . . . . . . . o o o . . . . . . 7 7 8 . . . . . . . .           . o o o .       . . . . . e Y.I.n.. . ",
"8 5.~.8.0.7.8 ~.Y.o o o 7 8 0 0 8 8 8 7 7 7 6 6 o o 6 o o 6 9 7 Y.7 8 o 8 7 8 7 6 o 6 o 6 7 8 8 7 7 6 o 6 7 7 7 ~.9 7.5.~.8 8 o ",
"k k Y ~.~.~.~.Y k k f 7 o 8 J J J J J J J J k k k k k k k k ~.~.:.$.k k k k k f 7 8 8 H U J J J J J J J J J k k L ~.E :.~.T k k ",
"f j f j.u z.j C H f O o 7 o J f & f = f f & f r f f = f r & #.;.& f f = f - f O o 7 8 J f - f = f f & f - !.M f 1 ~.~.F O.~.= f ",
"f - r f u f - f r = O . 7 8 J & f - r f - f u = f r r = r r ' r & f = r f & f O o 8 8 J f @ f = f r & C.s ~.B D r x ~.S O.-.~.= ",
"r - f u - f - u f = O . 7 o J & f f - u f = f = f r f @ f + r r f r = u f - f O o 8 0 J f - f = f r j.g.J.l ~.G = ( ( ~.S O.~.= ",
"f r - f u f u - r = O o 7 8 J u & f - f - @ u r r r = r f & f r & r u = r f - O o 8 0 J !.f f = f & f C.F.p ~.~._ r V.~.A - = r ",
"f r - f - f - u f = O o 7 7 J & f - @ u f = r r f r f = r + & u & f u = f - f O o 7 8 1.~.- f j.H.f r V.Z.L.p ~.u.i ~.R.- r f = ",
"= = r u = = u = = = O o 7 7 u & f f @ f - = f = f & f @ r & f r & u = u f & - O . 7 8 H >.~.g M.L.F.r f F.J.- f p.~.a u - f f = ",
"O O + + + + + + + O O . 7 7 f & & & & & & & & & @ @ @ @ @ @ @ @ @ @ @ @ @ @ O O . 7 7 !.U.~.!.& M.H.& & & ~.D.& u.> & @ @ @ @ O ",
". . . . . . . . . . . . 7 8 7 .         . . o o o .           . . . . . . . . . o 7 8.~.5.~.~.. o N.Y.7 9 Y.Y.    . . . . . . . ",
"8 7 8 o 7 o o 7 7 o o o o 7 7 o o o 7 7 7 7 7 8 8 7 7 o o o 8 7 7 7 8 o 7 o 7 o ~.q ~.n.8 o 7.~.8 B.~.~.~.7 7 o 8 7 8 7 8 o 8 o ",
"o U J J J J J J J k k k k k k k k k k k k k k k k k k k k k k f o 8 o U U J J W.v.%.v.!.J k h.!.!.k T !.T k k k k k k k k k f 7 ",
"8 J f r r f & f f - u f - f = r f & f - f r f & f & f f - = f O o 7 8 U f &.E.~.U.f a.L.= f 3 !.~.@ u r = f r - f - u = r f O . ",
"7 J f & f r & f r u - f & r @ f u & f @ r u r & f - f - f = u O . 7 7 ,. .f o.~., - @ x.Q.*.v !.Q.f & f = r = f r - u f & r O . ",
"7 J r & f & r = & f & f r - r f & u r r @ - f + u @ r & r r = O . o ~.!.!.h o.o.~.f - [ ~.d.~.z f @ f = = f = f - f = r & f O . ",
"o J f r f r & f r - u f - f @ r f & f @ r f @ u f - f f f = - O 0 Q.3.y.F ~.j.+.~.l @ f = u t - @ r & f - r u r u - = f r f O . ",
"8 J f & r f & f & f & f & f = f & & f @ r - f - r & u & r = f O   ~.4.R ~.~.! l o.~.@ f @ f @ u @ f & r = f = - f - u r & = O . ",
"o H f & f & r = r u - f r r r f u & r - @ & f + f = u - u ~.J.s.  ~.4.~.< f ~.` o.;.@ - f - @ u = r & f = f = f - u = f & f O . ",
"8 f & & & & & & & & & + + + + + + + + + + + + + + + + D.Q.[ ~.!.~.8.~.V & } } u.& & & & & @ @ @ @ @ + + + + + + + + + + + O O . ",
"o 7 . . . . . . . . . . o o o .         . . .       0.B.n.2.  3.~.5.~.~.m.~.~.. . .       . X o o .   . . . .       . . . . . . ",
"8 o 8 o 8 7 8 7 7 7 7 8 0 0 8 7 8 o 8 7 8 7 6 o Q.o 6 N.~.7 7 4.q.~.q 5.~.0 0 7 7 7 7 7 7 7 8 8 8 7 7 7 7 7 o X     . o 7 7 8 7 ",
"J J J J J k k k k k k k k k k k k f 7 8 7 U U J 1.!.J b.P.P.J k !.J.k k k k k k k k k k k k f 7 o 8 U J J J J J k k k k k k k k ",
"- f @ f f & u & f - H - f & f - f O . 7 7 !.f f >.c.~.f s.!.` F ~.E.& f u f & f & f @ f = & O o 7 8 J f & r f @ f = f = f & f = ",
"f - - f - f & u - & f @ - & r & r O . 7 4.!.~.f = >.~.= + g.~.~.~.r & r u & - r = r @ f & f O o 7 8 J & f @ f = f = r f = f r + ",
"f - @ - f & u & - f - @ f r & u - O m.N.2.<.!.- = f 6.!.- c.!.R.# f f & f & f & r @ r r & = O . 7 8 J & f = = f f r = r = & = r ",
"- u @ u & & f & f - f @ - = & f U.~.5.~.7 <.>.~.= f Q.!.~.f g.L.& f & r - & f & f r @ = u & O . 7 8 J f & @ f r = = f = f & = f ",
"& f - f & f & r f & f - @ r f t !.^ 6 9 I.P { ~.#./ ~.U.= r f.i.] f & f & - - & r = @ r = & O . 7 7 J & f r f = f r = = @ f = f ",
"& f - - & u u & u & - @ f & f e.t.~.7.~.~.v.a.#.T.~.* - - r + ' & r + f - & f r & f @ f @ r O . o 7 J & f @ = @ f = f = @ & f + ",
"- u @ f & & r & - - f @ f & = r r.I.~.9 q.!.l.+ E.f & f + r & f & f = & f & - f & r = r & r O . o 7 H & & @ f @ f = f = f & f = ",
"+ + + + + + + + + + + + + + + + O 2 8 8 8 E.E.O O O O + + + + + + + + + + + + + + + + + + O O   7 8 f O O + + + + + + + + + + + ",
". . . . . . . . . . . . . . . . . 7 q.Q.~.9 o X X . . . . . . . . . . . . . .           .       o 7 7 . . . . . .           . . ",
"o 8 o 8 o o o 7 7 7 7 7 8 8 o 7 7 7 8 Q.9 0 8 8 7 7 7 8 7 7 7 8 7 7 o 7 7 7 6 o o 6 o o 6 7 6 o o 8 7 7 o 8 7 7 7 7 6 o 6 7 7 7 ",
"8 8 8 8 8 8 8 8 8 8 8 8 8 8 8 8 8 8 8 8 8 8 8 8 8 8 8 8 8 8 8 8 8 8 8 8 8 8 8 8 8 8 8 8 8 8 8 8 8 8 8 8 8 8 8 8 8 8 8 8 8 8 8 8 "
};
