/* XPM */
static char *_15589a0eb994eaee0d1767d1d41714cFnqWC4QKaUA7dT0F[] = {
/* columns rows colors chars-per-pixel */
"64 64 43 1 ",
"  c #202020",
". c #2C2C2C",
"X c gray19",
"o c #343434",
"O c gray22",
"+ c #400000",
"@ c #4C0000",
"# c #580000",
"$ c #640000",
"% c #700000",
"& c #7C0000",
"* c #6F3F3F",
"= c #783F3F",
"- c gray25",
"; c #484848",
": c #4C4C4C",
"> c gray33",
", c gray36",
"< c #606060",
"1 c #646464",
"2 c DimGray",
"3 c gray46",
"4 c #7E7E7E",
"5 c #880000",
"6 c #980000",
"7 c #A40000",
"8 c #B00000",
"9 c #BC0000",
"0 c #813F3F",
"q c #8A3F3F",
"w c #933F3F",
"e c #9C3F3F",
"r c #A53F3F",
"t c #B13F3F",
"y c #BA3F3F",
"u c #C80000",
"i c #D40000",
"p c #E00000",
"a c #EC0000",
"s c #C33F3F",
"d c #CC3F3F",
"f c #F03F3F",
"g c white",
/* pixels */
"OOOOOOOOOOOOOOOOOOOOOOOOOOOOOOOOOOOOOOOOOOOOOOOOOOOOOOOOOOOOOOOO",
">O>;;;;;>;;;;;;>;O;;;;;;;>>>>>>;;;;;;;;;>>>>>>>;;;;OOO;;>>;;;;;O",
"Oaaiiiiiiiii7;;>aaiiiiiiiiiiiiiiiiii7;O>aaaappppppiiiiiuuuu9997;",
";au88i57i5u7$.;>a9595959&96969&9&9u7%.;Oi7u8u88u%u&u8u587&u6u7&.",
";i7&7576%75%$.;>i95575%77%677%67%76%#.;>i77&$75%57&57757&57#7%$.",
";i&77%677%7#+.;>i59757%757%7%5&7%6&%#.;;i%7$57$7%7&757$76&7&7%@.",
";u7&56&7%57%+.;>99575567%5%75%6&5%7%+.O;9%7&75$7%%77%7577&7#75@.",
";9&77%76%6%#+.;;9u57%7%7%7%65%&7%6&%#.O;967$57&5%5&757$7&57&7%+.",
";97%5#%&#%rggg2>66%%@5%%5%@%5%5%@5%%+.O;9%%#%%@5@%#5@%@5$@%5%5+.",
";&$$$++++*ggggg;&$$#########+++++++++.O;5$$$$$$$$$$#########+++.",
";;.......gggggg>;.....     ..    .....;>O...<ggg<...     .......",
">OOOO;;;3ggggggO;;;;;;;OOO>;;;OO;;;;;;>O;>>>ggggg>>;;-O->O>;;;>O",
"aiii9999gggggggy;>;aaiiiiiiuuuuuuu9999999999ggggg9997;->aaiiiiii",
"85586&8&ggggggggO;>a%8u&9$5955u675&575757&u$ggggg6u7+O;Oau&85858",
"5757&55$ggggggggg3;i8%7&7757$7%$57&7&7$775$7ggggg%7%+O;>u8&75&76",
"%7756$7&gggggggggg;i%75655$55%75$75&$&557#5&ggggg7%%+.-;u&777&7&",
"75575&&5gggggggggg;i%77&7$57$%7$57&5&7$75#7$ggggg%7%+.O;u8&7&76&",
"%7$7%5&tgggggggggg>i8#7&75$5#5%$75&#&7$5#57$ggggg%7%+ O;8&77#7&5",
"%8$%@&%ggggggggggg487%5#%6%5$%5#%6%6$5%55#6%ggggg%5%+ ->87&%#%6%",
"+@@@@@@ggggg=gggggggq$$$$$$$$$$$$###########ggggg##++ ;O7$+$++$+",
"... ...ggggg.>gggggggo......ooOOo...     .<gggggg....O;>;.......",
">>;OO;>gggggOOggggggg3-O-O-O-;;;>O>;-OOO--ggggggg;;;>;>O>-O->;;;",
">aaiiiiggggg99dggggggg999997;>>aaiiiiiiiiiggggggd99999999999997;",
">a589&9gggggs58urggggggq8u%+O;>a9%i7857858ggggg5%57&57657&57#7+.",
"Oa85767gggggg6575ggggggggw8+.;,i967$7$5%65ggggg$7%7&757$76&7&%+.",
";9$77%50ggggg567$rgggggggg%+.>1i9&7&7$7%67ggggg$7%%76%6577&7#%+.",
";9857@7#ggggg&7&5$&gggggggg*.>,i%7%65$56%7ggggg&5%5&757$7&57&%+.",
">9%$7@5&ggggg$75$57rggggggggg3>iu%7%7575%7ggggg@7@7#7@775$@%5%+.",
";u7$%%%#ggggg$5%%5%%$wgggggggg>u7%6%5#%%%%ggggg7#%7@%5@7#7@7%%+.",
";76$$$$$ggggg$$$$@@@@@@ggggggg47$$$$$$$$$$ggggg###########+#&#+.",
";;O.....ggggg.......OOO<ggggggg;........  gggggOO.   ...........",
">>>>>;;Oggggg>11>>>;;;--O2gggggg3;>O>;>;-Oggggg>;;-O-;;;>O>;;;>O",
"99999999ggggg>iiiiiiii9999ggggggg9999997;4gggggiiiiiii9999999999",
"78786u88gggggOi7$7%77$7577wgggggggy%7&7+Ogggggg%77$7&5&7%757&7%7",
"7&5767&7ggggg>i$7&57&76%755%ggggggggy$7+Ogggggy%75$757&556%6&65%",
"5&76&7&6gggggOi$77&67%7%757#ygggggggg&7+Oggggg7%757577&7%6576&7%",
"75&7676&ggggg>i6$7&7&#6555%57$gggggggge+Oggggg7%7$77&&7&75665&%5",
"75&7&7&6ggggg;i$7&#67%55757%5@qgggggggg+Oggggg77%755&7&7%657&57%",
"%%56%%6%ggggg;6$77#7&%7%7$7#5$75qgggggg*.ggggg7%775757&7%6%6&77%",
"++@@@@@@ggggg;7$$$$$$$$$##########gggggg.ggggg$$$$$$$$$$$$$####+",
"........ggggg>;.    ..OOO.     ...<ggggg2ggggg..OO;O..   .......",
">;>O;OO;ggggg;;OOO;;;;;>>;;OOO>;;;>ggggggggggg>;>,1>:;;O>;>;>O>O",
"Oaiiiiiiggggg9999999999999999997O>Ofgggggggggg99999999999999997;",
">i7557$7ggggg7%57$7&757$7$77&%7+O;>agggggggggg#75#65%75&7&6%57+.",
";i7$75$7ggggg5#76$7#565$7&7&7%6+.;;irggggggggg&7#7$7%5%75&67$5+.",
";i5$7$5wggggg&57$655#&7@6#5$55%+.O;i5ggggggggg#67#7%%7%7&7%5$7+.",
"Oi7575$gggggg7#57$7#57#67&777%&+.O;i7qgggggggg&&#5$7&5656&%757+.",
">i7$57$gggggq7%7$$7#5&7&5$6$5%7+ O>i7$$ggggggg#6#7$5%7%&7&65$%+.",
"Ou7$7$5ggggg55576$5&#$7@7%6&7%7+ O>u%7$rggggge#6%5$7%7%7&6%7$7+.",
">7$$$$$qggg=@@@@@@@@@@@@@@@@@@@+.;>7$$$$ggggg#####@@@@@@@@@@@++.",
"O;..........OOO.    ...    ..  ..;O;....<ggg>.oOo. ....   ......",
">O>O>;>;;;;>11>;>O>;>;-OOO-;>;;O;;>O>;;;;;;;;:>>>:;;;;OX  XO;;>;",
"iiiii9999999999997;>;aaiiiiiiii9999999999999997;O>aiiiii99999999",
"&7#77$6$7&u&7$7&7+.;;i7777$7@7&7$7$767$7$7#7%$+O;>i7$57#7%7%7$7%",
"7&&7&7$6&$7#&$5$5+.;;i&7%7$%@&6&75$56$&5%5#7$7+o;>i$7#7%7%57%75@",
"7&#&7$6$&7&#75$6&+.;-i&&%7$&&7#7@77$7$7$5#55$%+.;>i$7%%775%5%$%5",
"&6#6$$7$7&7#&%$7$+.;-i7@%7$7@7&6$7$5&$7$75#%6$+.;>i7$#75%%7%7$%7",
"$7&7$7$57$7&#57&5+.;-i@77$7&%5#&@7$7$&&$5%#5%$+.;;i$757%75%%#7%7",
"$7&&$66$6$&#7$7$6+.;;i@7%7$&&5@6$5@7&$75$7#7#5+.O;i$7#%#7%7%#$7@",
"&6#7$$5$&&7#7$%5&+.;>u7@%7$7@5$7$7%$7$&7$5%5$5+.O;u$$#7#7%7%7$7%",
"@@@@@@@@@@@@@@@@++.;;7+++++@@@@@@@@@@@@@@@@@@++ ;>7++@@@@@@@@@@@",
"...................;>;Ooo..............     .   O;;......     ..",
"O>O>OOO;;;;;>>O;;;;>>>>>;;;>;;;>;;O;;;-OO-OO-;-O->;;O>;;;;-O-;;;",
">>>>>>>>>>>>>>>>>>>>>>>>>>>>>>>>>>>>>>>>>>>>>>>>>>>>>>>>>>>>>>>>"
};
